# xmcd CD database file
#
# Track frame offsets:
#	150
#	13298
#	39557
#	65322
#	88422
#	98978
#	126011
#	137004
#	176319
#	201253
#	222314
#	240052
#	267590
#	292771
#	311571
#
# Disc length: 4555 seconds
#
# Revision: 0
# Processed by: cddbd v1.5.1PL0 Copyright (c) Steve Scherf et al.
# Submitted via: CDex 1.51
#
DISCID=d611c90f
DTITLE=Sina Vodjani - Karma - Love and Compassion [CD1]
DYEAR=2004
DGENRE=New Age
TTITLE0=Traveling To The Light
TTITLE1=Emaho
TTITLE2=Om Mani Padme Hung
TTITLE3=Vajra Sattva
TTITLE4=[Rain Of Blessing
TTITLE5=Karmapa Jenno
TTITLE6=Tara Mantra
TTITLE7=Vision Of Mahakala
TTITLE8=Invocation
TTITLE9=Arrival In Lhasa
TTITLE10=Om Shanti
TTITLE11=[Wisdom Of Love
TTITLE12=Neomin Choying
TTITLE13=Ave
TTITLE14=Early Morning
EXTD=YEAR: 2004
EXTT0=
EXTT1=
EXTT2=
EXTT3=
EXTT4=
EXTT5=
EXTT6=
EXTT7=
EXTT8=
EXTT9=
EXTT10=
EXTT11=
EXTT12=
EXTT13=
EXTT14=
PLAYORDER=
